# xmcd CD database file
#
# Track frame offsets:
#	150
#	18188
#	36918
#	58991
#	78665
#	95839
#	113977
#	133840
#	149055
#	163623
#
# Disc length: 2392 seconds
#
# Revision: 15
# Processed by: cddbd v1.5.1PL0 Copyright (c) Steve Scherf et al.
# Submitted via: CDex 1.51
#
DISCID=9509560a
DTITLE=Vasco Rossi - Stupido hotel
DYEAR=2001
DGENRE=Rock
TTITLE0=Vasco Rossi - Siamo soli
TTITLE1=Vasco Rossi - Ti prendo e ti porto via
TTITLE2=Vasco Rossi - Standing ovation
TTITLE3=Vasco Rossi - Stupido hotel
TTITLE4=Vasco Rossi - Io ti accontento
TTITLE5=Vasco Rossi - Perchè non piangi per me
TTITLE6=Vasco Rossi - Tu vuoi da me qualcosa
TTITLE7=Vasco Rossi - Stendimi
TTITLE8=Vasco Rossi - Quel vestito semplice
TTITLE9=Vasco Rossi - Canzone generale
EXTD=YEAR: 2001
EXTT0=inser by selidori.\nvisits www.bloopers.it
EXTT1=
EXTT2=
EXTT3=
EXTT4=
EXTT5=
EXTT6=
EXTT7=
EXTT8=
EXTT9=
PLAYORDER=
